<svg width="167" height="894" viewBox="0 0 167 894" fill="none" xmlns="http://www.w3.org/2000/svg">
<g opacity="0.1">
<mask id="path-1-outside-1_301_334" maskUnits="userSpaceOnUse" x="-2.99994" y="-540" width="297" height="1437" fill="black">
<rect fill="white" x="-2.99994" y="-540" width="297" height="1437"/>
<path d="M0.0910107 641.545L291 641.545L291 707.455L138.159 812.568L138.159 814.273L291 814.273L291 893.25L0.0910217 893.25L0.0910187 826.205L152.364 722.795L152.364 720.523L0.0910141 720.523L0.0910107 641.545ZM291 604.187L0.091009 604.187L0.0909999 394.528L63.7274 394.528L63.7274 525.21L113.727 525.21L113.727 405.324L177.364 405.324L177.364 525.21L227.364 525.21L227.364 395.097L291 395.097L291 604.187ZM0.0909945 270.7L84.7501 222.973L84.7501 220.7L0.0909902 172.405L0.0909863 84.3366L145.546 171.268L291 80.9275L291 171.268L204.636 220.7L204.636 222.973L291 272.405L291 362.178L145.546 272.973L0.0909983 359.337L0.0909945 270.7ZM63.7274 58.2358L0.0909852 58.2358L0.0909741 -194.605L63.7273 -194.605L63.7274 -107.105L291 -107.105L291 -29.2642L63.7274 -29.2642L63.7274 58.2358ZM291 -224.328L0.0909728 -224.328L0.0909639 -428.874L63.7273 -428.874L63.7273 -303.305L113.727 -303.305L113.727 -416.374L177.364 -416.374L177.364 -303.305L291 -303.305L291 -224.328ZM0.0909592 -536.899L291 -536.899L291 -457.922L0.0909626 -457.922L0.0909592 -536.899Z"/>
</mask>
<path d="M0.0910069 641.545L0.0910067 638.545L-2.90899 638.545L-2.90899 641.545L0.0910069 641.545ZM291 641.545L294 641.545L294 638.545L291 638.545L291 641.545ZM291 707.455L292.7 709.926L294 709.032L294 707.455L291 707.455ZM138.159 812.568L136.459 810.096L135.159 810.99L135.159 812.568L138.159 812.568ZM138.159 814.273L135.159 814.273L135.159 817.273L138.159 817.273L138.159 814.273ZM291 814.273L294 814.273L294 811.273L291 811.273L291 814.273ZM291 893.25L291 896.25L294 896.25L294 893.25L291 893.25ZM0.0910179 893.25L-2.90898 893.25L-2.90898 896.25L0.091018 896.25L0.0910179 893.25ZM0.0910149 826.205L-1.59439 823.723L-2.90899 824.615L-2.90899 826.205L0.0910149 826.205ZM152.364 722.795L154.049 725.277L155.364 724.385L155.364 722.795L152.364 722.795ZM152.364 720.523L155.364 720.523L155.364 717.523L152.364 717.523L152.364 720.523ZM0.0910103 720.523L-2.90899 720.523L-2.90899 723.523L0.0910104 723.523L0.0910103 720.523ZM0.091007 644.545L291 644.545L291 638.545L0.0910067 638.545L0.091007 644.545ZM288 641.545L288 707.455L294 707.455L294 641.545L288 641.545ZM289.3 704.983L136.459 810.096L139.859 815.04L292.7 709.926L289.3 704.983ZM135.159 812.568L135.159 814.273L141.159 814.273L141.159 812.568L135.159 812.568ZM138.159 817.273L291 817.273L291 811.273L138.159 811.273L138.159 817.273ZM288 814.273L288 893.25L294 893.25L294 814.273L288 814.273ZM291 890.25L0.0910177 890.25L0.091018 896.25L291 896.25L291 890.25ZM3.09102 893.25L3.09101 826.205L-2.90899 826.205L-2.90898 893.25L3.09102 893.25ZM1.77643 828.686L154.049 725.277L150.678 720.314L-1.59439 823.723L1.77643 828.686ZM155.364 722.795L155.364 720.523L149.364 720.523L149.364 722.795L155.364 722.795ZM152.364 717.523L0.0910102 717.523L0.0910104 723.523L152.364 723.523L152.364 717.523ZM3.09101 720.523L3.09101 641.545L-2.90899 641.545L-2.90899 720.523L3.09101 720.523ZM291 604.187L291 607.187L294 607.187L294 604.187L291 604.187ZM0.0910052 604.187L-2.90899 604.187L-2.90899 607.187L0.0910054 607.187L0.0910052 604.187ZM0.0909961 394.528L0.0909959 391.528L-2.909 391.528L-2.909 394.528L0.0909961 394.528ZM63.7274 394.528L66.7274 394.528L66.7274 391.528L63.7274 391.528L63.7274 394.528ZM63.7274 525.21L60.7274 525.21L60.7274 528.21L63.7274 528.21L63.7274 525.21ZM113.727 525.21L113.727 528.21L116.727 528.21L116.727 525.21L113.727 525.21ZM113.727 405.324L113.727 402.324L110.727 402.324L110.727 405.324L113.727 405.324ZM177.364 405.324L180.364 405.324L180.364 402.324L177.364 402.324L177.364 405.324ZM177.364 525.21L174.364 525.21L174.364 528.21L177.364 528.21L177.364 525.21ZM227.364 525.21L227.364 528.21L230.364 528.21L230.364 525.21L227.364 525.21ZM227.364 395.097L227.364 392.097L224.364 392.097L224.364 395.097L227.364 395.097ZM291 395.097L294 395.097L294 392.097L291 392.097L291 395.097ZM291 601.187L0.0910051 601.187L0.0910054 607.187L291 607.187L291 601.187ZM3.09101 604.187L3.091 394.528L-2.909 394.528L-2.90899 604.187L3.09101 604.187ZM0.0909962 397.528L63.7274 397.528L63.7274 391.528L0.0909959 391.528L0.0909962 397.528ZM60.7274 394.528L60.7274 525.21L66.7274 525.21L66.7274 394.528L60.7274 394.528ZM63.7274 528.21L113.727 528.21L113.727 522.21L63.7274 522.21L63.7274 528.21ZM116.727 525.21L116.727 405.324L110.727 405.324L110.727 525.21L116.727 525.21ZM113.727 408.324L177.364 408.324L177.364 402.324L113.727 402.324L113.727 408.324ZM174.364 405.324L174.364 525.21L180.364 525.21L180.364 405.324L174.364 405.324ZM177.364 528.21L227.364 528.21L227.364 522.21L177.364 522.21L177.364 528.21ZM230.364 525.21L230.364 395.097L224.364 395.097L224.364 525.21L230.364 525.21ZM227.364 398.097L291 398.097L291 392.097L227.364 392.097L227.364 398.097ZM288 395.097L288 604.187L294 604.187L294 395.097L288 395.097ZM0.0909906 270.7L-1.38228 268.087L-2.90901 268.948L-2.90901 270.7L0.0909906 270.7ZM84.7501 222.973L86.2234 225.586L87.7501 224.726L87.7501 222.973L84.7501 222.973ZM84.7501 220.7L87.7501 220.7L87.7501 218.958L86.2366 218.094L84.7501 220.7ZM0.0909863 172.405L-2.90901 172.405L-2.90901 174.147L-1.39554 175.011L0.0909863 172.405ZM0.0909825 84.3367L1.63003 81.7615L-2.90902 79.0487L-2.90902 84.3367L0.0909825 84.3367ZM145.546 171.268L144.006 173.844L145.576 174.781L147.128 173.817L145.546 171.268ZM291 80.9275L294 80.9275L294 75.5327L289.417 78.3791L291 80.9275ZM291 171.268L292.49 173.872L294 173.008L294 171.268L291 171.268ZM204.636 220.7L203.146 218.097L201.636 218.961L201.636 220.7L204.636 220.7ZM204.636 222.973L201.636 222.973L201.636 224.713L203.146 225.577L204.636 222.973ZM291 272.405L294 272.405L294 270.665L292.49 269.801L291 272.405ZM291 362.178L289.432 364.735L294 367.537L294 362.178L291 362.178ZM145.546 272.973L147.114 270.416L145.571 269.469L144.014 270.393L145.546 272.973ZM0.0909945 359.337L-2.90901 359.337L-2.90901 364.607L1.62261 361.916L0.0909945 359.337ZM1.56427 273.314L86.2234 225.586L83.2768 220.36L-1.38228 268.087L1.56427 273.314ZM87.7501 222.973L87.7501 220.7L81.7501 220.7L81.7501 222.973L87.7501 222.973ZM86.2366 218.094L1.57752 169.799L-1.39554 175.011L83.2636 223.306L86.2366 218.094ZM3.09099 172.405L3.09098 84.3367L-2.90902 84.3367L-2.90901 172.405L3.09099 172.405ZM-1.44806 86.9118L144.006 173.844L147.085 168.693L1.63003 81.7615L-1.44806 86.9118ZM147.128 173.817L292.583 83.476L289.417 78.3791L143.963 168.72L147.128 173.817ZM288 80.9275L288 171.268L294 171.268L294 80.9275L288 80.9275ZM289.51 168.665L203.146 218.097L206.127 223.304L292.49 173.872L289.51 168.665ZM201.636 220.7L201.636 222.973L207.636 222.973L207.636 220.7L201.636 220.7ZM203.146 225.577L289.51 275.008L292.49 269.801L206.127 220.369L203.146 225.577ZM288 272.405L288 362.178L294 362.178L294 272.405L288 272.405ZM292.568 359.62L147.114 270.416L143.977 275.53L289.432 364.735L292.568 359.62ZM144.014 270.393L-1.44061 356.757L1.62261 361.916L147.077 275.553L144.014 270.393ZM3.09099 359.337L3.09099 270.7L-2.90901 270.7L-2.90901 359.337L3.09099 359.337ZM63.7274 58.2358L63.7274 61.2358L66.7274 61.2358L66.7274 58.2358L63.7274 58.2358ZM0.0909814 58.2358L-2.90902 58.2358L-2.90902 61.2358L0.0909815 61.2358L0.0909814 58.2358ZM0.0909703 -194.605L0.0909702 -197.605L-2.90903 -197.605L-2.90903 -194.605L0.0909703 -194.605ZM63.7274 -194.605L66.7274 -194.605L66.7274 -197.605L63.7274 -197.605L63.7274 -194.605ZM63.7274 -107.105L60.7274 -107.105L60.7274 -104.105L63.7274 -104.105L63.7274 -107.105ZM291 -107.105L294 -107.105L294 -110.105L291 -110.105L291 -107.105ZM291 -29.2642L291 -26.2642L294 -26.2642L294 -29.2642L291 -29.2642ZM63.7274 -29.2642L63.7274 -32.2642L60.7274 -32.2642L60.7274 -29.2642L63.7274 -29.2642ZM63.7274 55.2358L0.0909812 55.2358L0.0909815 61.2358L63.7274 61.2358L63.7274 55.2358ZM3.09098 58.2358L3.09097 -194.605L-2.90903 -194.605L-2.90902 58.2358L3.09098 58.2358ZM0.0909704 -191.605L63.7274 -191.605L63.7274 -197.605L0.0909702 -197.605L0.0909704 -191.605ZM60.7274 -194.605L60.7274 -107.105L66.7274 -107.105L66.7274 -194.605L60.7274 -194.605ZM63.7274 -104.105L291 -104.105L291 -110.105L63.7274 -110.105L63.7274 -104.105ZM288 -107.105L288 -29.2642L294 -29.2642L294 -107.105L288 -107.105ZM291 -32.2642L63.7274 -32.2642L63.7274 -26.2642L291 -26.2642L291 -32.2642ZM60.7274 -29.2642L60.7274 58.2358L66.7274 58.2358L66.7274 -29.2642L60.7274 -29.2642ZM291 -224.328L291 -221.328L294 -221.328L294 -224.328L291 -224.328ZM0.090969 -224.328L-2.90903 -224.328L-2.90903 -221.328L0.0909691 -221.328L0.090969 -224.328ZM0.0909601 -428.874L0.0909599 -431.874L-2.90904 -431.874L-2.90904 -428.874L0.0909601 -428.874ZM63.7273 -428.874L66.7273 -428.874L66.7273 -431.874L63.7273 -431.874L63.7273 -428.874ZM63.7273 -303.305L60.7273 -303.305L60.7273 -300.305L63.7273 -300.305L63.7273 -303.305ZM113.727 -303.305L113.727 -300.305L116.727 -300.305L116.727 -303.305L113.727 -303.305ZM113.727 -416.374L113.727 -419.374L110.727 -419.374L110.727 -416.374L113.727 -416.374ZM177.364 -416.374L180.364 -416.374L180.364 -419.374L177.364 -419.374L177.364 -416.374ZM177.364 -303.305L174.364 -303.305L174.364 -300.305L177.364 -300.305L177.364 -303.305ZM291 -303.305L294 -303.305L294 -306.305L291 -306.305L291 -303.305ZM291 -227.328L0.0909689 -227.328L0.0909691 -221.328L291 -221.328L291 -227.328ZM3.09097 -224.328L3.09096 -428.874L-2.90904 -428.874L-2.90903 -224.328L3.09097 -224.328ZM0.0909602 -425.874L63.7273 -425.874L63.7273 -431.874L0.0909599 -431.874L0.0909602 -425.874ZM60.7273 -428.874L60.7273 -303.305L66.7273 -303.305L66.7273 -428.874L60.7273 -428.874ZM63.7273 -300.305L113.727 -300.305L113.727 -306.305L63.7273 -306.305L63.7273 -300.305ZM116.727 -303.305L116.727 -416.374L110.727 -416.374L110.727 -303.305L116.727 -303.305ZM113.727 -413.374L177.364 -413.374L177.364 -419.374L113.727 -419.374L113.727 -413.374ZM174.364 -416.374L174.364 -303.305L180.364 -303.305L180.364 -416.374L174.364 -416.374ZM177.364 -300.305L291 -300.305L291 -306.305L177.364 -306.305L177.364 -300.305ZM288 -303.305L288 -224.328L294 -224.328L294 -303.305L288 -303.305ZM0.0909553 -536.899L0.0909552 -539.899L-2.90904 -539.899L-2.90904 -536.899L0.0909553 -536.899ZM291 -536.899L294 -536.899L294 -539.899L291 -539.899L291 -536.899ZM291 -457.922L291 -454.922L294 -454.922L294 -457.922L291 -457.922ZM0.0909588 -457.922L-2.90904 -457.922L-2.90904 -454.922L0.0909589 -454.922L0.0909588 -457.922ZM0.0909555 -533.899L291 -533.899L291 -539.899L0.0909552 -539.899L0.0909555 -533.899ZM288 -536.899L288 -457.922L294 -457.922L294 -536.899L288 -536.899ZM291 -460.922L0.0909587 -460.922L0.0909589 -454.922L291 -454.922L291 -460.922ZM3.09096 -457.922L3.09096 -536.899L-2.90904 -536.899L-2.90904 -457.922L3.09096 -457.922Z" fill="white" mask="url(#path-1-outside-1_301_334)"/>
</g>
</svg>
