<svg width="14" height="15" viewBox="0 0 14 15" fill="none" xmlns="http://www.w3.org/2000/svg">
<path d="M6.667 9.0835L4.89199 10.8252C4.42533 11.2918 4.16699 11.9002 4.16699 12.5502C4.16699 13.9002 5.292 15.0002 6.667 15.0002C8.042 15.0002 9.16701 13.9002 9.16701 12.5502C9.16701 11.9002 8.90867 11.2835 8.44201 10.8252L6.667 9.0835Z" fill="url(#paint0_linear_817_848)"/>
<path d="M10 3.33334L9.63337 3.79168C8.65003 5.01668 6.66669 4.32501 6.66669 2.75001V0C6.66669 0 0 3.33334 0 9.1667C0 11.6 1.3 13.725 3.24168 14.8834C2.77501 14.225 2.50001 13.4167 2.50001 12.55C2.50001 11.45 2.93334 10.4167 3.72501 9.63336L6.66669 6.75002L9.60837 9.6417C10.4 10.4167 10.8334 11.45 10.8334 12.5584C10.8334 13.4084 10.575 14.1917 10.125 14.85C11.7 13.8917 12.8667 12.3 13.2167 10.4334C13.7667 7.47502 12.325 4.68335 10 3.33334Z" fill="url(#paint1_linear_817_848)"/>
<defs>
<linearGradient id="paint0_linear_817_848" x1="6.667" y1="9.0835" x2="6.667" y2="15.0002" gradientUnits="userSpaceOnUse">
<stop stop-color="#FFBB4F"/>
<stop offset="1" stop-color="#FF4D4D"/>
</linearGradient>
<linearGradient id="paint1_linear_817_848" x1="6.66686" y1="0" x2="6.66686" y2="14.8834" gradientUnits="userSpaceOnUse">
<stop stop-color="#FFBB4F"/>
<stop offset="1" stop-color="#FF4D4D"/>
</linearGradient>
</defs>
</svg>
