<svg width="18" height="19" viewBox="0 0 18 19" fill="none" xmlns="http://www.w3.org/2000/svg">
<path d="M15.9809 10.7653C16.0174 10.484 16.0356 10.1934 16.0356 9.88403C16.0356 9.58403 16.0174 9.28403 15.9718 9.00278L17.8197 7.52153C17.9835 7.39028 18.029 7.13716 17.9289 6.94966L16.1812 3.83716C16.072 3.63091 15.8444 3.56528 15.6441 3.63091L13.4686 4.53091C13.0135 4.17466 12.5311 3.87466 11.994 3.64966L11.6663 1.26841C11.6299 1.04341 11.4478 0.884033 11.2294 0.884033H7.73399C7.51553 0.884033 7.34258 1.04341 7.30617 1.26841L6.97848 3.64966C6.44142 3.87466 5.94988 4.18403 5.50386 4.53091L3.32834 3.63091C3.12808 3.55591 2.90052 3.63091 2.79128 3.83716L1.05269 6.94966C0.943459 7.14653 0.979869 7.39028 1.16192 7.52153L3.00975 9.00278C2.96423 9.28403 2.92782 9.59341 2.92782 9.88403C2.92782 10.1747 2.94603 10.484 2.99154 10.7653L1.14372 12.2465C0.979869 12.3778 0.934356 12.6309 1.03448 12.8184L2.78218 15.9309C2.89141 16.1372 3.11898 16.2028 3.31924 16.1372L5.49475 15.2372C5.94988 15.5934 6.43232 15.8934 6.96937 16.1184L7.29707 18.4997C7.34258 18.7247 7.51553 18.884 7.73399 18.884H11.2294C11.4478 18.884 11.6299 18.7247 11.6572 18.4997L11.9849 16.1184C12.522 15.8934 13.0135 15.5934 13.4595 15.2372L15.635 16.1372C15.8353 16.2122 16.0629 16.1372 16.1721 15.9309L17.9198 12.8184C18.029 12.6122 17.9835 12.3778 17.8106 12.2465L15.9809 10.7653ZM9.48169 13.259C7.67938 13.259 6.20476 11.7403 6.20476 9.88403C6.20476 8.02778 7.67938 6.50903 9.48169 6.50903C11.284 6.50903 12.7586 8.02778 12.7586 9.88403C12.7586 11.7403 11.284 13.259 9.48169 13.259Z" fill="#cfcfcf"/>
</svg>
