<svg width="23" height="23" viewBox="0 0 23 23" fill="none" xmlns="http://www.w3.org/2000/svg">
<path d="M20.0365 23L18.2605 21.2241C18.2061 21.2241 18.1516 21.2459 18.0971 21.2459H13.9569C13.9569 18.2932 11.6035 17.9773 11.0152 17.9773C10.4268 17.9773 8.07342 18.2932 8.07342 21.2459H3.93321C2.73472 21.2459 1.75414 20.2653 1.75414 19.0668V14.9266C4.70677 14.9266 5.02274 12.5732 5.02274 11.9848C5.02274 11.3965 4.69588 9.04311 1.76504 9.04311V4.90289C1.76504 4.84841 1.78683 4.80483 1.78683 4.75036L0 2.96352L1.53624 1.42729L21.5618 21.4529L20.0365 23ZM20.2762 17.073V14.7087C21.7797 14.7087 23 13.4884 23 11.9848C23 10.4813 21.7797 9.26101 20.2762 9.26101V4.90289C20.2762 3.70441 19.2956 2.72383 18.0971 2.72383H13.739C13.739 1.22027 12.5187 0 11.0152 0C9.5116 0 8.29133 1.22027 8.29133 2.72383H5.92705L20.2762 17.073Z" fill="#A55FFF"/>
</svg>
