<svg width="22" height="23" viewBox="0 0 22 23" fill="none" xmlns="http://www.w3.org/2000/svg">
<path d="M11 0.5C4.928 0.5 0 5.428 0 11.5C0 17.572 4.928 22.5 11 22.5C17.072 22.5 22 17.572 22 11.5C22 5.428 17.072 0.5 11 0.5ZM12.551 18.199V20.3H9.614V18.177C7.733 17.781 6.138 16.571 6.017 14.437H8.173C8.283 15.592 9.075 16.494 11.088 16.494C13.244 16.494 13.728 15.416 13.728 14.745C13.728 13.832 13.244 12.974 10.791 12.391C8.063 11.731 6.193 10.609 6.193 8.354C6.193 6.462 7.722 5.23 9.614 4.823V2.7H12.551V4.845C14.597 5.34 15.62 6.891 15.686 8.574H13.53C13.475 7.353 12.826 6.517 11.088 6.517C9.438 6.517 8.448 7.265 8.448 8.321C8.448 9.245 9.163 9.85 11.385 10.422C13.607 10.994 15.983 11.951 15.983 14.723C15.972 16.736 14.465 17.836 12.551 18.199Z" fill="#898A8B"/>
</svg>
