<svg width="20" height="23" viewBox="0 0 20 23" fill="none" xmlns="http://www.w3.org/2000/svg">
<path d="M10 17.25C11.1111 17.25 12.0787 16.8763 12.9028 16.1287C13.7269 15.3813 14.2222 14.4517 14.3889 13.34C14.4259 13.1483 14.3843 12.9854 14.2639 12.8512C14.1435 12.7171 13.9815 12.65 13.7778 12.65H6.22222C6.03704 12.65 5.87963 12.7171 5.75 12.8512C5.62037 12.9854 5.57407 13.1483 5.61111 13.34C5.77778 14.4517 6.27315 15.3813 7.09722 16.1287C7.9213 16.8763 8.88889 17.25 10 17.25ZM10 23C8.61111 23 7.31019 22.7269 6.09722 22.1806C4.88426 21.6344 3.8287 20.8965 2.93056 19.9669C2.03241 19.0373 1.31944 17.9448 0.791667 16.6894C0.263889 15.434 0 14.0875 0 12.65V2.3C0 1.6675 0.217593 1.12604 0.652778 0.675625C1.08796 0.225208 1.61111 0 2.22222 0H17.7778C18.3889 0 18.912 0.225208 19.3472 0.675625C19.7824 1.12604 20 1.6675 20 2.3V12.65C20 14.0875 19.7361 15.434 19.2083 16.6894C18.6806 17.9448 17.9676 19.0373 17.0694 19.9669C16.1713 20.8965 15.1157 21.6344 13.9028 22.1806C12.6898 22.7269 11.3889 23 10 23ZM10 20.7C12.1481 20.7 13.9815 19.9142 15.5 18.3425C17.0185 16.7708 17.7778 14.8733 17.7778 12.65V2.3H2.22222V12.65C2.22222 14.8733 2.98148 16.7708 4.5 18.3425C6.01852 19.9142 7.85185 20.7 10 20.7ZM10 20.7C7.85185 20.7 6.01852 19.9142 4.5 18.3425C2.98148 16.7708 2.22222 14.8733 2.22222 12.65V2.3H17.7778V12.65C17.7778 14.8733 17.0185 16.7708 15.5 18.3425C13.9815 19.9142 12.1481 20.7 10 20.7ZM6.66667 5.75C6.16667 5.75 5.72685 5.90333 5.34722 6.21C4.96759 6.51667 4.7037 6.9 4.55556 7.36C4.5 7.5325 4.52778 7.69062 4.63889 7.83437C4.75 7.97812 4.90741 8.05 5.11111 8.05H8.22222C8.40741 8.05 8.55556 7.97812 8.66667 7.83437C8.77778 7.69062 8.81482 7.5325 8.77778 7.36C8.62963 6.9 8.36574 6.51667 7.98611 6.21C7.60648 5.90333 7.16667 5.75 6.66667 5.75ZM13.3333 5.75C12.8333 5.75 12.3935 5.90333 12.0139 6.21C11.6343 6.51667 11.3704 6.9 11.2222 7.36C11.1667 7.5325 11.1944 7.69062 11.3056 7.83437C11.4167 7.97812 11.5741 8.05 11.7778 8.05H14.8889C15.0741 8.05 15.2222 7.97812 15.3333 7.83437C15.4444 7.69062 15.4815 7.5325 15.4444 7.36C15.2963 6.9 15.0324 6.51667 14.6528 6.21C14.2731 5.90333 13.8333 5.75 13.3333 5.75Z" fill="#898A8B"/>
</svg>
