<svg width="26" height="37" viewBox="0 0 26 37" fill="none" xmlns="http://www.w3.org/2000/svg">
<rect width="26" height="37" rx="10" fill="#383738"/>
<path d="M15.5 9.5C15.5 10.8807 14.3807 12 13 12C11.6193 12 10.5 10.8807 10.5 9.5C10.5 8.11929 11.6193 7 13 7C14.3807 7 15.5 8.11929 15.5 9.5Z" fill="white"/>
<path d="M15.5 18.5C15.5 19.8807 14.3807 21 13 21C11.6193 21 10.5 19.8807 10.5 18.5C10.5 17.1193 11.6193 16 13 16C14.3807 16 15.5 17.1193 15.5 18.5Z" fill="white"/>
<path d="M15.5 27.5C15.5 28.8807 14.3807 30 13 30C11.6193 30 10.5 28.8807 10.5 27.5C10.5 26.1193 11.6193 25 13 25C14.3807 25 15.5 26.1193 15.5 27.5Z" fill="white"/>
</svg>
