<svg width="1728" height="225" viewBox="0 0 1728 225" fill="none" xmlns="http://www.w3.org/2000/svg">
<mask id="path-1-outside-1_398_384" maskUnits="userSpaceOnUse" x="-380" y="-1" width="2960" height="227" fill="black">
<rect fill="white" x="-380" y="-1" width="2960" height="227"/>
<path d="M-378.779 3.81818H-305.058L-254.347 127.398H-251.791L-201.08 3.81818H-127.359V222H-185.313V95.8636H-187.018L-235.597 220.295H-270.541L-319.12 95.0114H-320.825V222H-378.779V3.81818ZM-42.611 222H-106.531L-34.5144 3.81818H46.4515L118.469 222H54.5481L6.82085 63.9034H5.1163L-42.611 222ZM-54.5428 135.92H65.6277V180.239H-54.5428V135.92ZM139.482 222V3.81818H198.715V92.0284H201.698L267.323 3.81818H336.357L262.636 100.977L338.062 222H267.323L218.318 140.182L198.715 165.75V222H139.482ZM353.936 222V3.81818H511.18V51.5455H413.169V89.0454H503.083V136.773H413.169V174.273H510.754V222H353.936ZM540.557 3.81818H614.278L664.988 127.398H667.545L718.256 3.81818H791.977V222H734.023V95.8636H732.318L683.738 220.295H648.795L600.216 95.0114H598.511V222H540.557V3.81818ZM1031.41 112.909C1031.41 137.199 1026.69 157.689 1017.24 174.379C1007.8 190.999 995.049 203.605 978.998 212.199C962.947 220.722 945.049 224.983 925.305 224.983C905.418 224.983 887.449 220.686 871.398 212.092C855.418 203.428 842.705 190.786 833.259 174.166C823.884 157.476 819.197 137.057 819.197 112.909C819.197 88.6193 823.884 68.1648 833.259 51.5455C842.705 34.8551 855.418 22.2486 871.398 13.7258C887.449 5.13209 905.418 0.835219 925.305 0.835219C945.049 0.835219 962.947 5.13209 978.998 13.7258C995.049 22.2486 1007.8 34.8551 1017.24 51.5455C1026.69 68.1648 1031.41 88.6193 1031.41 112.909ZM970.475 112.909C970.475 99.8409 968.735 88.8324 965.255 79.8835C961.846 70.8636 956.768 64.0454 950.02 59.429C943.344 54.7415 935.106 52.3977 925.305 52.3977C915.503 52.3977 907.229 54.7415 900.482 59.429C893.806 64.0454 888.728 70.8636 885.248 79.8835C881.839 88.8324 880.134 99.8409 880.134 112.909C880.134 125.977 881.839 137.021 885.248 146.041C888.728 154.99 893.806 161.808 900.482 166.496C907.229 171.112 915.503 173.42 925.305 173.42C935.106 173.42 943.344 171.112 950.02 166.496C956.768 161.808 961.846 154.99 965.255 146.041C968.735 137.021 970.475 125.977 970.475 112.909ZM1058.82 222V3.81818H1152.99C1169.19 3.81818 1183.36 6.76562 1195.5 12.6605C1207.65 18.5554 1217.09 27.0426 1223.84 38.1222C1230.59 49.2017 1233.96 62.4829 1233.96 77.9659C1233.96 93.5909 1230.48 106.766 1223.52 117.49C1216.63 128.214 1206.94 136.311 1194.44 141.78C1182.01 147.249 1167.48 149.983 1150.86 149.983H1094.61V103.96H1138.93C1145.89 103.96 1151.82 103.108 1156.72 101.403C1161.69 99.6278 1165.49 96.8224 1168.12 92.9872C1170.82 89.152 1172.17 84.1449 1172.17 77.9659C1172.17 71.7159 1170.82 66.6378 1168.12 62.7315C1165.49 58.7543 1161.69 55.8423 1156.72 53.9957C1151.82 52.0781 1145.89 51.1193 1138.93 51.1193H1118.05V222H1058.82ZM1186.66 121.858L1241.2 222H1176.86L1123.59 121.858H1186.66ZM1259.21 222V3.81818H1416.45V51.5455H1318.44V89.0454H1408.36V136.773H1318.44V174.273H1416.03V222H1259.21ZM1445.83 3.81818H1519.55L1570.26 127.398H1572.82L1623.53 3.81818H1697.25V222H1639.3V95.8636H1637.59L1589.01 220.295H1554.07L1505.49 95.0114H1503.78V222H1445.83V3.81818ZM1936.69 112.909C1936.69 137.199 1931.96 157.689 1922.52 174.379C1913.07 190.999 1900.32 203.605 1884.27 212.199C1868.22 220.722 1850.32 224.983 1830.58 224.983C1810.69 224.983 1792.72 220.686 1776.67 212.092C1760.69 203.428 1747.98 190.786 1738.53 174.166C1729.16 157.476 1724.47 137.057 1724.47 112.909C1724.47 88.6193 1729.16 68.1648 1738.53 51.5455C1747.98 34.8551 1760.69 22.2486 1776.67 13.7258C1792.72 5.13209 1810.69 0.835219 1830.58 0.835219C1850.32 0.835219 1868.22 5.13209 1884.27 13.7258C1900.32 22.2486 1913.07 34.8551 1922.52 51.5455C1931.96 68.1648 1936.69 88.6193 1936.69 112.909ZM1875.75 112.909C1875.75 99.8409 1874.01 88.8324 1870.53 79.8835C1867.12 70.8636 1862.04 64.0454 1855.29 59.429C1848.62 54.7415 1840.38 52.3977 1830.58 52.3977C1820.78 52.3977 1812.5 54.7415 1805.76 59.429C1799.08 64.0454 1794 70.8636 1790.52 79.8835C1787.11 88.8324 1785.41 99.8409 1785.41 112.909C1785.41 125.977 1787.11 137.021 1790.52 146.041C1794 154.99 1799.08 161.808 1805.76 166.496C1812.5 171.112 1820.78 173.42 1830.58 173.42C1840.38 173.42 1848.62 171.112 1855.29 166.496C1862.04 161.808 1867.12 154.99 1870.53 146.041C1874.01 137.021 1875.75 125.977 1875.75 112.909ZM2152.87 3.81818V222H2103.44L2024.6 107.369H2023.32V222H1964.09V3.81818H2014.38L2091.93 118.023H2093.64V3.81818H2152.87ZM2180.89 222V3.81818H2338.13V51.5455H2240.12V89.0454H2330.04V136.773H2240.12V174.273H2337.71V222H2180.89ZM2358.56 3.81818H2424.61L2467.23 92.4545H2468.93L2511.54 3.81818H2577.6L2497.48 153.392V222H2438.67V153.392L2358.56 3.81818Z"/>
</mask>
<path d="M-378.779 3.81818H-305.058L-254.347 127.398H-251.791L-201.08 3.81818H-127.359V222H-185.313V95.8636H-187.018L-235.597 220.295H-270.541L-319.12 95.0114H-320.825V222H-378.779V3.81818ZM-42.611 222H-106.531L-34.5144 3.81818H46.4515L118.469 222H54.5481L6.82085 63.9034H5.1163L-42.611 222ZM-54.5428 135.92H65.6277V180.239H-54.5428V135.92ZM139.482 222V3.81818H198.715V92.0284H201.698L267.323 3.81818H336.357L262.636 100.977L338.062 222H267.323L218.318 140.182L198.715 165.75V222H139.482ZM353.936 222V3.81818H511.18V51.5455H413.169V89.0454H503.083V136.773H413.169V174.273H510.754V222H353.936ZM540.557 3.81818H614.278L664.988 127.398H667.545L718.256 3.81818H791.977V222H734.023V95.8636H732.318L683.738 220.295H648.795L600.216 95.0114H598.511V222H540.557V3.81818ZM1031.41 112.909C1031.41 137.199 1026.69 157.689 1017.24 174.379C1007.8 190.999 995.049 203.605 978.998 212.199C962.947 220.722 945.049 224.983 925.305 224.983C905.418 224.983 887.449 220.686 871.398 212.092C855.418 203.428 842.705 190.786 833.259 174.166C823.884 157.476 819.197 137.057 819.197 112.909C819.197 88.6193 823.884 68.1648 833.259 51.5455C842.705 34.8551 855.418 22.2486 871.398 13.7258C887.449 5.13209 905.418 0.835219 925.305 0.835219C945.049 0.835219 962.947 5.13209 978.998 13.7258C995.049 22.2486 1007.8 34.8551 1017.24 51.5455C1026.69 68.1648 1031.41 88.6193 1031.41 112.909ZM970.475 112.909C970.475 99.8409 968.735 88.8324 965.255 79.8835C961.846 70.8636 956.768 64.0454 950.02 59.429C943.344 54.7415 935.106 52.3977 925.305 52.3977C915.503 52.3977 907.229 54.7415 900.482 59.429C893.806 64.0454 888.728 70.8636 885.248 79.8835C881.839 88.8324 880.134 99.8409 880.134 112.909C880.134 125.977 881.839 137.021 885.248 146.041C888.728 154.99 893.806 161.808 900.482 166.496C907.229 171.112 915.503 173.42 925.305 173.42C935.106 173.42 943.344 171.112 950.02 166.496C956.768 161.808 961.846 154.99 965.255 146.041C968.735 137.021 970.475 125.977 970.475 112.909ZM1058.82 222V3.81818H1152.99C1169.19 3.81818 1183.36 6.76562 1195.5 12.6605C1207.65 18.5554 1217.09 27.0426 1223.84 38.1222C1230.59 49.2017 1233.96 62.4829 1233.96 77.9659C1233.96 93.5909 1230.48 106.766 1223.52 117.49C1216.63 128.214 1206.94 136.311 1194.44 141.78C1182.01 147.249 1167.48 149.983 1150.86 149.983H1094.61V103.96H1138.93C1145.89 103.96 1151.82 103.108 1156.72 101.403C1161.69 99.6278 1165.49 96.8224 1168.12 92.9872C1170.82 89.152 1172.17 84.1449 1172.17 77.9659C1172.17 71.7159 1170.82 66.6378 1168.12 62.7315C1165.49 58.7543 1161.69 55.8423 1156.72 53.9957C1151.82 52.0781 1145.89 51.1193 1138.93 51.1193H1118.05V222H1058.82ZM1186.66 121.858L1241.2 222H1176.86L1123.59 121.858H1186.66ZM1259.21 222V3.81818H1416.45V51.5455H1318.44V89.0454H1408.36V136.773H1318.44V174.273H1416.03V222H1259.21ZM1445.83 3.81818H1519.55L1570.26 127.398H1572.82L1623.53 3.81818H1697.25V222H1639.3V95.8636H1637.59L1589.01 220.295H1554.07L1505.49 95.0114H1503.78V222H1445.83V3.81818ZM1936.69 112.909C1936.69 137.199 1931.96 157.689 1922.52 174.379C1913.07 190.999 1900.32 203.605 1884.27 212.199C1868.22 220.722 1850.32 224.983 1830.58 224.983C1810.69 224.983 1792.72 220.686 1776.67 212.092C1760.69 203.428 1747.98 190.786 1738.53 174.166C1729.16 157.476 1724.47 137.057 1724.47 112.909C1724.47 88.6193 1729.16 68.1648 1738.53 51.5455C1747.98 34.8551 1760.69 22.2486 1776.67 13.7258C1792.72 5.13209 1810.69 0.835219 1830.58 0.835219C1850.32 0.835219 1868.22 5.13209 1884.27 13.7258C1900.32 22.2486 1913.07 34.8551 1922.52 51.5455C1931.96 68.1648 1936.69 88.6193 1936.69 112.909ZM1875.75 112.909C1875.75 99.8409 1874.01 88.8324 1870.53 79.8835C1867.12 70.8636 1862.04 64.0454 1855.29 59.429C1848.62 54.7415 1840.38 52.3977 1830.58 52.3977C1820.78 52.3977 1812.5 54.7415 1805.76 59.429C1799.08 64.0454 1794 70.8636 1790.52 79.8835C1787.11 88.8324 1785.41 99.8409 1785.41 112.909C1785.41 125.977 1787.11 137.021 1790.52 146.041C1794 154.99 1799.08 161.808 1805.76 166.496C1812.5 171.112 1820.78 173.42 1830.58 173.42C1840.38 173.42 1848.62 171.112 1855.29 166.496C1862.04 161.808 1867.12 154.99 1870.53 146.041C1874.01 137.021 1875.75 125.977 1875.75 112.909ZM2152.87 3.81818V222H2103.44L2024.6 107.369H2023.32V222H1964.09V3.81818H2014.38L2091.93 118.023H2093.64V3.81818H2152.87ZM2180.89 222V3.81818H2338.13V51.5455H2240.12V89.0454H2330.04V136.773H2240.12V174.273H2337.71V222H2180.89ZM2358.56 3.81818H2424.61L2467.23 92.4545H2468.93L2511.54 3.81818H2577.6L2497.48 153.392V222H2438.67V153.392L2358.56 3.81818Z" fill="url(#paint0_linear_398_384)" fill-opacity="0.2"/>
<path d="M-378.779 3.81818V2.81818H-379.779V3.81818H-378.779ZM-305.058 3.81818L-304.133 3.43855L-304.387 2.81818H-305.058V3.81818ZM-254.347 127.398L-255.273 127.777L-255.018 128.398H-254.347V127.398ZM-251.791 127.398V128.398H-251.12L-250.866 127.777L-251.791 127.398ZM-201.08 3.81818V2.81818H-201.751L-202.006 3.43855L-201.08 3.81818ZM-127.359 3.81818H-126.359V2.81818H-127.359V3.81818ZM-127.359 222V223H-126.359V222H-127.359ZM-185.313 222H-186.313V223H-185.313V222ZM-185.313 95.8636H-184.313V94.8636H-185.313V95.8636ZM-187.018 95.8636V94.8636H-187.701L-187.949 95.5L-187.018 95.8636ZM-235.597 220.295V221.295H-234.914L-234.666 220.659L-235.597 220.295ZM-270.541 220.295L-271.473 220.657L-271.225 221.295H-270.541V220.295ZM-319.12 95.0114L-318.188 94.6498L-318.435 94.0114H-319.12V95.0114ZM-320.825 95.0114V94.0114H-321.825V95.0114H-320.825ZM-320.825 222V223H-319.825V222H-320.825ZM-378.779 222H-379.779V223H-378.779V222ZM-378.779 4.81818H-305.058V2.81818H-378.779V4.81818ZM-305.983 4.1978L-255.273 127.777L-253.422 127.018L-304.133 3.43855L-305.983 4.1978ZM-254.347 128.398H-251.791V126.398H-254.347V128.398ZM-250.866 127.777L-200.155 4.1978L-202.006 3.43855L-252.716 127.018L-250.866 127.777ZM-201.08 4.81818H-127.359V2.81818H-201.08V4.81818ZM-128.359 3.81818V222H-126.359V3.81818H-128.359ZM-127.359 221H-185.313V223H-127.359V221ZM-184.313 222V95.8636H-186.313V222H-184.313ZM-185.313 94.8636H-187.018V96.8636H-185.313V94.8636ZM-187.949 95.5L-236.529 219.932L-234.666 220.659L-186.086 96.2273L-187.949 95.5ZM-235.597 219.295H-270.541V221.295H-235.597V219.295ZM-269.608 219.934L-318.188 94.6498L-320.053 95.3729L-271.473 220.657L-269.608 219.934ZM-319.12 94.0114H-320.825V96.0114H-319.12V94.0114ZM-321.825 95.0114V222H-319.825V95.0114H-321.825ZM-320.825 221H-378.779V223H-320.825V221ZM-377.779 222V3.81818H-379.779V222H-377.779ZM-42.611 222V223H-41.8683L-41.6537 222.289L-42.611 222ZM-106.531 222L-107.481 221.687L-107.915 223H-106.531V222ZM-34.5144 3.81818V2.81818H-35.2374L-35.464 3.50473L-34.5144 3.81818ZM46.4515 3.81818L47.4012 3.50473L47.1745 2.81818H46.4515V3.81818ZM118.469 222V223H119.852L119.418 221.687L118.469 222ZM54.5481 222L53.5908 222.289L53.8055 223H54.5481V222ZM6.82086 63.9034L7.77817 63.6144L7.56354 62.9034H6.82086V63.9034ZM5.1163 63.9034V62.9034H4.37363L4.15897 63.6144L5.1163 63.9034ZM-54.5428 135.92V134.92H-55.5428V135.92H-54.5428ZM65.6277 135.92H66.6277V134.92H65.6277V135.92ZM65.6277 180.239V181.239H66.6277V180.239H65.6277ZM-54.5428 180.239H-55.5428V181.239H-54.5428V180.239ZM-42.611 221H-106.531V223H-42.611V221ZM-105.582 222.313L-33.5648 4.13162L-35.464 3.50473L-107.481 221.687L-105.582 222.313ZM-34.5144 4.81818H46.4515V2.81818H-34.5144V4.81818ZM45.5019 4.13162L117.519 222.313L119.418 221.687L47.4012 3.50473L45.5019 4.13162ZM118.469 221H54.5481V223H118.469V221ZM55.5055 221.711L7.77817 63.6144L5.86353 64.1924L53.5908 222.289L55.5055 221.711ZM6.82086 62.9034H5.1163V64.9034H6.82086V62.9034ZM4.15897 63.6144L-43.5683 221.711L-41.6537 222.289L6.07364 64.1924L4.15897 63.6144ZM-54.5428 136.92H65.6277V134.92H-54.5428V136.92ZM64.6277 135.92V180.239H66.6277V135.92H64.6277ZM65.6277 179.239H-54.5428V181.239H65.6277V179.239ZM-53.5428 180.239V135.92H-55.5428V180.239H-53.5428ZM139.482 222H138.482V223H139.482V222ZM139.482 3.81818V2.81818H138.482V3.81818H139.482ZM198.715 3.81818H199.715V2.81818H198.715V3.81818ZM198.715 92.0284H197.715V93.0284H198.715V92.0284ZM201.698 92.0284V93.0284H202.201L202.501 92.6253L201.698 92.0284ZM267.323 3.81818V2.81818H266.821L266.521 3.22128L267.323 3.81818ZM336.357 3.81818L337.154 4.42264L338.371 2.81818H336.357V3.81818ZM262.636 100.977L261.839 100.373L261.423 100.922L261.787 101.506L262.636 100.977ZM338.062 222V223H339.864L338.911 221.471L338.062 222ZM267.323 222L266.465 222.514L266.757 223H267.323V222ZM218.318 140.182L219.176 139.668L218.419 138.406L217.524 139.573L218.318 140.182ZM198.715 165.75L197.922 165.142L197.715 165.411V165.75H198.715ZM198.715 222V223H199.715V222H198.715ZM140.482 222V3.81818H138.482V222H140.482ZM139.482 4.81818H198.715V2.81818H139.482V4.81818ZM197.715 3.81818V92.0284H199.715V3.81818H197.715ZM198.715 93.0284H201.698V91.0284H198.715V93.0284ZM202.501 92.6253L268.126 4.41507L266.521 3.22128L200.896 91.4315L202.501 92.6253ZM267.323 4.81818H336.357V2.81818H267.323V4.81818ZM335.561 3.21371L261.839 100.373L263.432 101.582L337.154 4.42264L335.561 3.21371ZM261.787 101.506L337.213 222.529L338.911 221.471L263.484 100.448L261.787 101.506ZM338.062 221H267.323V223H338.062V221ZM268.181 221.486L219.176 139.668L217.46 140.696L266.465 222.514L268.181 221.486ZM217.524 139.573L197.922 165.142L199.509 166.358L219.111 140.79L217.524 139.573ZM197.715 165.75V222H199.715V165.75H197.715ZM198.715 221H139.482V223H198.715V221ZM353.936 222H352.936V223H353.936V222ZM353.936 3.81818V2.81818H352.936V3.81818H353.936ZM511.18 3.81818H512.18V2.81818H511.18V3.81818ZM511.18 51.5455V52.5455H512.18V51.5455H511.18ZM413.169 51.5455V50.5455H412.169V51.5455H413.169ZM413.169 89.0454H412.169V90.0454H413.169V89.0454ZM503.083 89.0454H504.083V88.0454H503.083V89.0454ZM503.083 136.773V137.773H504.083V136.773H503.083ZM413.169 136.773V135.773H412.169V136.773H413.169ZM413.169 174.273H412.169V175.273H413.169V174.273ZM510.754 174.273H511.754V173.273H510.754V174.273ZM510.754 222V223H511.754V222H510.754ZM354.936 222V3.81818H352.936V222H354.936ZM353.936 4.81818H511.18V2.81818H353.936V4.81818ZM510.18 3.81818V51.5455H512.18V3.81818H510.18ZM511.18 50.5455H413.169V52.5455H511.18V50.5455ZM412.169 51.5455V89.0454H414.169V51.5455H412.169ZM413.169 90.0454H503.083V88.0454H413.169V90.0454ZM502.083 89.0454V136.773H504.083V89.0454H502.083ZM503.083 135.773H413.169V137.773H503.083V135.773ZM412.169 136.773V174.273H414.169V136.773H412.169ZM413.169 175.273H510.754V173.273H413.169V175.273ZM509.754 174.273V222H511.754V174.273H509.754ZM510.754 221H353.936V223H510.754V221ZM540.557 3.81818V2.81818H539.557V3.81818H540.557ZM614.278 3.81818L615.203 3.43855L614.949 2.81818H614.278V3.81818ZM664.989 127.398L664.063 127.777L664.318 128.398H664.989V127.398ZM667.545 127.398V128.398H668.216L668.47 127.777L667.545 127.398ZM718.255 3.81818V2.81818H717.585L717.33 3.43855L718.255 3.81818ZM791.977 3.81818H792.977V2.81818H791.977V3.81818ZM791.977 222V223H792.977V222H791.977ZM734.023 222H733.023V223H734.023V222ZM734.023 95.8636H735.023V94.8636H734.023V95.8636ZM732.318 95.8636V94.8636H731.635L731.386 95.5L732.318 95.8636ZM683.739 220.295V221.295H684.422L684.67 220.659L683.739 220.295ZM648.795 220.295L647.863 220.657L648.11 221.295H648.795V220.295ZM600.216 95.0114L601.148 94.6498L600.901 94.0114H600.216V95.0114ZM598.511 95.0114V94.0114H597.511V95.0114H598.511ZM598.511 222V223H599.511V222H598.511ZM540.557 222H539.557V223H540.557V222ZM540.557 4.81818H614.278V2.81818H540.557V4.81818ZM613.353 4.1978L664.063 127.777L665.914 127.018L615.203 3.43855L613.353 4.1978ZM664.989 128.398H667.545V126.398H664.989V128.398ZM668.47 127.777L719.181 4.1978L717.33 3.43855L666.62 127.018L668.47 127.777ZM718.255 4.81818H791.977V2.81818H718.255V4.81818ZM790.977 3.81818V222H792.977V3.81818H790.977ZM791.977 221H734.023V223H791.977V221ZM735.023 222V95.8636H733.023V222H735.023ZM734.023 94.8636H732.318V96.8636H734.023V94.8636ZM731.386 95.5L682.807 219.932L684.67 220.659L733.25 96.2273L731.386 95.5ZM683.739 219.295H648.795V221.295H683.739V219.295ZM649.728 219.934L601.148 94.6498L599.283 95.3729L647.863 220.657L649.728 219.934ZM600.216 94.0114H598.511V96.0114H600.216V94.0114ZM597.511 95.0114V222H599.511V95.0114H597.511ZM598.511 221H540.557V223H598.511V221ZM541.557 222V3.81818H539.557V222H541.557ZM1017.24 174.379L1018.11 174.873L1018.11 174.872L1017.24 174.379ZM978.998 212.199L979.467 213.082L979.47 213.08L978.998 212.199ZM871.398 212.092L870.922 212.971L870.926 212.974L871.398 212.092ZM833.259 174.166L832.387 174.656L832.39 174.66L833.259 174.166ZM833.259 51.5455L832.389 51.0529L832.388 51.0541L833.259 51.5455ZM871.398 13.7258L871.869 14.6082L871.87 14.6074L871.398 13.7258ZM978.998 13.7258L978.526 14.6074L978.529 14.6091L978.998 13.7258ZM1017.24 51.5455L1016.37 52.038L1016.37 52.0396L1017.24 51.5455ZM965.255 79.8835L964.319 80.2371L964.323 80.246L965.255 79.8835ZM950.02 59.429L949.446 60.2474L949.456 60.2543L950.02 59.429ZM900.482 59.429L901.051 60.2515L901.053 60.2502L900.482 59.429ZM885.248 79.8835L884.315 79.5236L884.313 79.5275L885.248 79.8835ZM885.248 146.041L884.312 146.395L884.316 146.404L885.248 146.041ZM900.482 166.496L899.907 167.314L899.917 167.321L900.482 166.496ZM950.02 166.496L950.589 167.318L950.591 167.317L950.02 166.496ZM965.255 146.041L964.322 145.681L964.32 145.685L965.255 146.041ZM1030.41 112.909C1030.41 137.071 1025.71 157.382 1016.37 173.887L1018.11 174.872C1027.66 157.996 1032.41 137.326 1032.41 112.909H1030.41ZM1016.37 173.885C1007.02 190.349 994.402 202.817 978.526 211.317L979.47 213.08C995.696 204.393 1008.58 191.648 1018.11 174.873L1016.37 173.885ZM978.529 211.316C962.634 219.755 944.9 223.983 925.305 223.983V225.983C945.198 225.983 963.259 221.688 979.467 213.082L978.529 211.316ZM925.305 223.983C905.567 223.983 887.763 219.72 871.87 211.211L870.926 212.974C887.136 221.652 905.269 225.983 925.305 225.983V223.983ZM871.875 211.213C856.068 202.642 843.487 190.138 834.128 173.672L832.39 174.66C841.923 191.433 854.769 204.213 870.922 212.971L871.875 211.213ZM834.131 173.676C824.859 157.17 820.197 136.929 820.197 112.909H818.197C818.197 137.184 822.909 157.782 832.387 174.656L834.131 173.676ZM820.197 112.909C820.197 88.7454 824.86 68.4706 834.13 52.0368L832.388 51.0541C822.908 67.859 818.197 88.4932 818.197 112.909H820.197ZM834.129 52.038C843.488 35.5027 856.066 23.0362 871.869 14.6082L870.928 12.8435C854.77 21.4609 841.922 34.2075 832.389 51.0529L834.129 52.038ZM871.87 14.6074C887.763 6.09844 905.567 1.83522 925.305 1.83522V-0.16478C905.269 -0.16478 887.136 4.16575 870.926 12.8442L871.87 14.6074ZM925.305 1.83522C944.898 1.83522 962.632 6.09789 978.526 14.6074L979.47 12.8442C963.261 4.16631 945.199 -0.16478 925.305 -0.16478V1.83522ZM978.529 14.6091C994.402 23.0374 1007.02 35.5038 1016.37 52.038L1018.11 51.0529C1008.58 34.2064 995.696 21.4597 979.467 12.8426L978.529 14.6091ZM1016.37 52.0396C1025.71 68.4728 1030.41 88.7465 1030.41 112.909H1032.41C1032.41 88.4921 1027.66 67.8568 1018.11 51.0513L1016.37 52.0396ZM971.475 112.909C971.475 99.7588 969.725 88.619 966.187 79.5211L964.323 80.246C967.745 89.0458 969.475 99.923 969.475 112.909H971.475ZM966.19 79.53C962.722 70.3538 957.53 63.3553 950.585 58.6037L949.456 60.2543C956.005 64.7356 960.969 71.3734 964.319 80.2371L966.19 79.53ZM950.595 58.6106C943.719 53.7827 935.269 51.3977 925.305 51.3977V53.3977C934.942 53.3977 942.97 55.7002 949.446 60.2474L950.595 58.6106ZM925.305 51.3977C915.34 51.3977 906.856 53.7828 899.911 58.6077L901.053 60.2502C907.602 55.7001 915.667 53.3977 925.305 53.3977V51.3977ZM899.913 58.6065C893.043 63.3575 887.853 70.3529 884.315 79.5236L886.181 80.2435C889.603 71.3743 894.569 64.7334 901.051 60.2515L899.913 58.6065ZM884.313 79.5275C880.848 88.6232 879.134 99.7607 879.134 112.909H881.134C881.134 99.9211 882.829 89.0415 886.182 80.2395L884.313 79.5275ZM879.134 112.909C879.134 126.058 880.848 137.23 884.312 146.395L886.183 145.688C882.829 136.813 881.134 125.897 881.134 112.909H879.134ZM884.316 146.404C887.854 155.503 893.043 162.494 899.907 167.314L901.057 165.677C894.569 161.122 889.601 154.477 886.18 145.679L884.316 146.404ZM899.917 167.321C906.862 172.072 915.343 174.42 925.305 174.42V172.42C915.664 172.42 907.597 170.152 901.047 165.67L899.917 167.321ZM925.305 174.42C935.266 174.42 943.714 172.072 950.589 167.318L949.452 165.673C942.975 170.152 934.945 172.42 925.305 172.42V174.42ZM950.591 167.317C957.53 162.496 962.721 155.502 966.189 146.397L964.32 145.685C960.971 154.478 956.006 161.12 949.45 165.674L950.591 167.317ZM966.188 146.401C969.725 137.234 971.475 126.06 971.475 112.909H969.475C969.475 125.895 967.745 136.809 964.322 145.681L966.188 146.401ZM1058.82 222H1057.82V223H1058.82V222ZM1058.82 3.81818V2.81818H1057.82V3.81818H1058.82ZM1223.84 38.1222L1224.69 37.602L1223.84 38.1222ZM1223.52 117.49L1222.68 116.946L1222.68 116.95L1223.52 117.49ZM1194.44 141.78L1194.04 140.864L1194.03 140.865L1194.44 141.78ZM1094.61 149.983H1093.61V150.983H1094.61V149.983ZM1094.61 103.96V102.96H1093.61V103.96H1094.61ZM1156.72 101.403L1157.05 102.348L1157.06 102.345L1156.72 101.403ZM1168.12 92.9872L1167.3 92.4117L1167.3 92.422L1168.12 92.9872ZM1168.12 62.7315L1167.29 63.2828L1167.29 63.2914L1167.3 63.3L1168.12 62.7315ZM1156.72 53.9957L1156.36 54.927L1156.37 54.9301L1156.38 54.9332L1156.72 53.9957ZM1118.05 51.1193V50.1193H1117.05V51.1193H1118.05ZM1118.05 222V223H1119.05V222H1118.05ZM1186.66 121.858L1187.54 121.38L1187.25 120.858H1186.66V121.858ZM1241.2 222V223H1242.89L1242.08 221.522L1241.2 222ZM1176.86 222L1175.98 222.47L1176.26 223H1176.86V222ZM1123.59 121.858V120.858H1121.93L1122.71 122.328L1123.59 121.858ZM1059.82 222V3.81818H1057.82V222H1059.82ZM1058.82 4.81818H1152.99V2.81818H1058.82V4.81818ZM1152.99 4.81818C1169.07 4.81818 1183.08 7.74319 1195.06 13.5601L1195.94 11.7609C1183.63 5.78805 1169.31 2.81818 1152.99 2.81818V4.81818ZM1195.06 13.5601C1207.04 19.3748 1216.34 27.7336 1222.99 38.6423L1224.69 37.602C1217.84 26.3517 1208.25 17.736 1195.94 11.7609L1195.06 13.5601ZM1222.99 38.6423C1229.62 49.5371 1232.96 62.6306 1232.96 77.9659H1234.96C1234.96 62.3353 1231.55 48.8663 1224.69 37.602L1222.99 38.6423ZM1232.96 77.9659C1232.96 93.4409 1229.52 106.416 1222.68 116.946L1224.36 118.034C1231.45 107.115 1234.96 93.7409 1234.96 77.9659H1232.96ZM1222.68 116.95C1215.9 127.496 1206.37 135.468 1194.04 140.864L1194.84 142.696C1207.5 137.154 1217.36 128.933 1224.36 118.031L1222.68 116.95ZM1194.03 140.865C1181.76 146.266 1167.37 148.983 1150.86 148.983V150.983C1167.59 150.983 1182.26 148.231 1194.84 142.695L1194.03 140.865ZM1150.86 148.983H1094.61V150.983H1150.86V148.983ZM1095.61 149.983V103.96H1093.61V149.983H1095.61ZM1094.61 104.96H1138.93V102.96H1094.61V104.96ZM1138.93 104.96C1145.97 104.96 1152.02 104.099 1157.05 102.348L1156.39 100.459C1151.63 102.117 1145.82 102.96 1138.93 102.96V104.96ZM1157.06 102.345C1162.2 100.509 1166.18 97.5845 1168.95 93.5524L1167.3 92.422C1164.8 96.0603 1161.19 98.747 1156.39 100.462L1157.06 102.345ZM1168.94 93.5627C1171.79 89.5128 1173.17 84.2861 1173.17 77.9659H1171.17C1171.17 84.0036 1169.85 88.7912 1167.3 92.4117L1168.94 93.5627ZM1173.17 77.9659C1173.17 71.5763 1171.79 66.282 1168.95 62.1631L1167.3 63.3C1169.85 66.9936 1171.17 71.8555 1171.17 77.9659H1173.17ZM1168.96 62.1803C1166.2 58.0061 1162.22 54.9701 1157.07 53.0583L1156.38 54.9332C1161.17 56.7146 1164.79 59.5024 1167.29 63.2828L1168.96 62.1803ZM1157.09 53.0645C1152.04 51.0894 1145.98 50.1193 1138.93 50.1193V52.1193C1145.81 52.1193 1151.61 53.0668 1156.36 54.927L1157.09 53.0645ZM1138.93 50.1193H1118.05V52.1193H1138.93V50.1193ZM1117.05 51.1193V222H1119.05V51.1193H1117.05ZM1118.05 221H1058.82V223H1118.05V221ZM1185.78 122.336L1240.33 222.478L1242.08 221.522L1187.54 121.38L1185.78 122.336ZM1241.2 221H1176.86V223H1241.2V221ZM1177.74 221.53L1124.47 121.388L1122.71 122.328L1175.98 222.47L1177.74 221.53ZM1123.59 122.858H1186.66V120.858H1123.59V122.858ZM1259.21 222H1258.21V223H1259.21V222ZM1259.21 3.81818V2.81818H1258.21V3.81818H1259.21ZM1416.45 3.81818H1417.45V2.81818H1416.45V3.81818ZM1416.45 51.5455V52.5455H1417.45V51.5455H1416.45ZM1318.44 51.5455V50.5455H1317.44V51.5455H1318.44ZM1318.44 89.0454H1317.44V90.0454H1318.44V89.0454ZM1408.36 89.0454H1409.36V88.0454H1408.36V89.0454ZM1408.36 136.773V137.773H1409.36V136.773H1408.36ZM1318.44 136.773V135.773H1317.44V136.773H1318.44ZM1318.44 174.273H1317.44V175.273H1318.44V174.273ZM1416.03 174.273H1417.03V173.273H1416.03V174.273ZM1416.03 222V223H1417.03V222H1416.03ZM1260.21 222V3.81818H1258.21V222H1260.21ZM1259.21 4.81818H1416.45V2.81818H1259.21V4.81818ZM1415.45 3.81818V51.5455H1417.45V3.81818H1415.45ZM1416.45 50.5455H1318.44V52.5455H1416.45V50.5455ZM1317.44 51.5455V89.0454H1319.44V51.5455H1317.44ZM1318.44 90.0454H1408.36V88.0454H1318.44V90.0454ZM1407.36 89.0454V136.773H1409.36V89.0454H1407.36ZM1408.36 135.773H1318.44V137.773H1408.36V135.773ZM1317.44 136.773V174.273H1319.44V136.773H1317.44ZM1318.44 175.273H1416.03V173.273H1318.44V175.273ZM1415.03 174.273V222H1417.03V174.273H1415.03ZM1416.03 221H1259.21V223H1416.03V221ZM1445.83 3.81818V2.81818H1444.83V3.81818H1445.83ZM1519.55 3.81818L1520.48 3.43855L1520.22 2.81818H1519.55V3.81818ZM1570.26 127.398L1569.34 127.777L1569.59 128.398H1570.26V127.398ZM1572.82 127.398V128.398H1573.49L1573.74 127.777L1572.82 127.398ZM1623.53 3.81818V2.81818H1622.86L1622.6 3.43855L1623.53 3.81818ZM1697.25 3.81818H1698.25V2.81818H1697.25V3.81818ZM1697.25 222V223H1698.25V222H1697.25ZM1639.3 222H1638.3V223H1639.3V222ZM1639.3 95.8636H1640.3V94.8636H1639.3V95.8636ZM1637.59 95.8636V94.8636H1636.91L1636.66 95.5L1637.59 95.8636ZM1589.01 220.295V221.295H1589.69L1589.94 220.659L1589.01 220.295ZM1554.07 220.295L1553.14 220.657L1553.38 221.295H1554.07V220.295ZM1505.49 95.0114L1506.42 94.6498L1506.17 94.0114H1505.49V95.0114ZM1503.78 95.0114V94.0114H1502.78V95.0114H1503.78ZM1503.78 222V223H1504.78V222H1503.78ZM1445.83 222H1444.83V223H1445.83V222ZM1445.83 4.81818H1519.55V2.81818H1445.83V4.81818ZM1518.63 4.1978L1569.34 127.777L1571.19 127.018L1520.48 3.43855L1518.63 4.1978ZM1570.26 128.398H1572.82V126.398H1570.26V128.398ZM1573.74 127.777L1624.45 4.1978L1622.6 3.43855L1571.89 127.018L1573.74 127.777ZM1623.53 4.81818H1697.25V2.81818H1623.53V4.81818ZM1696.25 3.81818V222H1698.25V3.81818H1696.25ZM1697.25 221H1639.3V223H1697.25V221ZM1640.3 222V95.8636H1638.3V222H1640.3ZM1639.3 94.8636H1637.59V96.8636H1639.3V94.8636ZM1636.66 95.5L1588.08 219.932L1589.94 220.659L1638.52 96.2273L1636.66 95.5ZM1589.01 219.295H1554.07V221.295H1589.01V219.295ZM1555 219.934L1506.42 94.6498L1504.56 95.3729L1553.14 220.657L1555 219.934ZM1505.49 94.0114H1503.78V96.0114H1505.49V94.0114ZM1502.78 95.0114V222H1504.78V95.0114H1502.78ZM1503.78 221H1445.83V223H1503.78V221ZM1446.83 222V3.81818H1444.83V222H1446.83ZM1922.52 174.379L1923.39 174.873L1923.39 174.872L1922.52 174.379ZM1884.27 212.199L1884.74 213.082L1884.74 213.08L1884.27 212.199ZM1776.67 212.092L1776.2 212.971L1776.2 212.974L1776.67 212.092ZM1738.53 174.166L1737.66 174.656L1737.66 174.66L1738.53 174.166ZM1738.53 51.5455L1737.66 51.0529L1737.66 51.0541L1738.53 51.5455ZM1776.67 13.7258L1777.14 14.6082L1777.14 14.6074L1776.67 13.7258ZM1884.27 13.7258L1883.8 14.6074L1883.8 14.6091L1884.27 13.7258ZM1922.52 51.5455L1921.65 52.038L1921.65 52.0396L1922.52 51.5455ZM1870.53 79.8835L1869.59 80.2371L1869.6 80.246L1870.53 79.8835ZM1855.29 59.429L1854.72 60.2474L1854.73 60.2543L1855.29 59.429ZM1805.76 59.429L1806.32 60.2515L1806.33 60.2502L1805.76 59.429ZM1790.52 79.8835L1789.59 79.5236L1789.59 79.5275L1790.52 79.8835ZM1790.52 146.041L1789.59 146.395L1789.59 146.404L1790.52 146.041ZM1805.76 166.496L1805.18 167.314L1805.19 167.321L1805.76 166.496ZM1855.29 166.496L1855.86 167.318L1855.86 167.317L1855.29 166.496ZM1870.53 146.041L1869.6 145.681L1869.59 145.685L1870.53 146.041ZM1935.69 112.909C1935.69 137.071 1930.99 157.382 1921.65 173.887L1923.39 174.872C1932.94 157.996 1937.69 137.326 1937.69 112.909H1935.69ZM1921.65 173.885C1912.29 190.349 1899.68 202.817 1883.8 211.317L1884.74 213.08C1900.97 204.393 1913.85 191.648 1923.39 174.873L1921.65 173.885ZM1883.8 211.316C1867.91 219.755 1850.17 223.983 1830.58 223.983V225.983C1850.47 225.983 1868.53 221.688 1884.74 213.082L1883.8 211.316ZM1830.58 223.983C1810.84 223.983 1793.04 219.72 1777.14 211.211L1776.2 212.974C1792.41 221.652 1810.54 225.983 1830.58 225.983V223.983ZM1777.15 211.213C1761.34 202.642 1748.76 190.138 1739.4 173.672L1737.66 174.66C1747.2 191.433 1760.04 204.213 1776.2 212.971L1777.15 211.213ZM1739.4 173.676C1730.13 157.17 1725.47 136.929 1725.47 112.909H1723.47C1723.47 137.184 1728.18 157.782 1737.66 174.656L1739.4 173.676ZM1725.47 112.909C1725.47 88.7454 1730.13 68.4706 1739.4 52.0368L1737.66 51.0541C1728.18 67.859 1723.47 88.4932 1723.47 112.909H1725.47ZM1739.4 52.038C1748.76 35.5027 1761.34 23.0362 1777.14 14.6082L1776.2 12.8435C1760.04 21.4609 1747.2 34.2075 1737.66 51.0529L1739.4 52.038ZM1777.14 14.6074C1793.04 6.09844 1810.84 1.83522 1830.58 1.83522V-0.16478C1810.54 -0.16478 1792.41 4.16575 1776.2 12.8442L1777.14 14.6074ZM1830.58 1.83522C1850.17 1.83522 1867.91 6.09789 1883.8 14.6074L1884.74 12.8442C1868.53 4.16631 1850.47 -0.16478 1830.58 -0.16478V1.83522ZM1883.8 14.6091C1899.68 23.0374 1912.29 35.5038 1921.65 52.038L1923.39 51.0529C1913.85 34.2064 1900.97 21.4597 1884.74 12.8426L1883.8 14.6091ZM1921.65 52.0396C1930.99 68.4728 1935.69 88.7465 1935.69 112.909H1937.69C1937.69 88.4921 1932.94 67.8568 1923.39 51.0513L1921.65 52.0396ZM1876.75 112.909C1876.75 99.7588 1875 88.619 1871.46 79.5211L1869.6 80.246C1873.02 89.0458 1874.75 99.923 1874.75 112.909H1876.75ZM1871.46 79.53C1868 70.3538 1862.8 63.3553 1855.86 58.6037L1854.73 60.2543C1861.28 64.7356 1866.24 71.3734 1869.59 80.2371L1871.46 79.53ZM1855.87 58.6106C1848.99 53.7827 1840.54 51.3977 1830.58 51.3977V53.3977C1840.22 53.3977 1848.24 55.7002 1854.72 60.2474L1855.87 58.6106ZM1830.58 51.3977C1820.61 51.3977 1812.13 53.7828 1805.19 58.6077L1806.33 60.2502C1812.88 55.7001 1820.94 53.3977 1830.58 53.3977V51.3977ZM1805.19 58.6065C1798.32 63.3575 1793.13 70.3529 1789.59 79.5236L1791.45 80.2435C1794.88 71.3743 1799.84 64.7334 1806.32 60.2515L1805.19 58.6065ZM1789.59 79.5275C1786.12 88.6232 1784.41 99.7607 1784.41 112.909H1786.41C1786.41 99.9211 1788.1 89.0415 1791.46 80.2395L1789.59 79.5275ZM1784.41 112.909C1784.41 126.058 1786.12 137.23 1789.59 146.395L1791.46 145.688C1788.1 136.813 1786.41 125.897 1786.41 112.909H1784.41ZM1789.59 146.404C1793.13 155.503 1798.32 162.494 1805.18 167.314L1806.33 165.677C1799.84 161.122 1794.87 154.477 1791.45 145.679L1789.59 146.404ZM1805.19 167.321C1812.14 172.072 1820.62 174.42 1830.58 174.42V172.42C1820.94 172.42 1812.87 170.152 1806.32 165.67L1805.19 167.321ZM1830.58 174.42C1840.54 174.42 1848.99 172.072 1855.86 167.318L1854.73 165.673C1848.25 170.152 1840.22 172.42 1830.58 172.42V174.42ZM1855.86 167.317C1862.8 162.496 1867.99 155.502 1871.46 146.397L1869.59 145.685C1866.24 154.478 1861.28 161.12 1854.72 165.674L1855.86 167.317ZM1871.46 146.401C1875 137.234 1876.75 126.06 1876.75 112.909H1874.75C1874.75 125.895 1873.02 136.809 1869.6 145.681L1871.46 146.401ZM2152.87 3.81818H2153.87V2.81818H2152.87V3.81818ZM2152.87 222V223H2153.87V222H2152.87ZM2103.44 222L2102.61 222.567L2102.91 223H2103.44V222ZM2024.6 107.369L2025.43 106.803L2025.13 106.369H2024.6V107.369ZM2023.32 107.369V106.369H2022.32V107.369H2023.32ZM2023.32 222V223H2024.32V222H2023.32ZM1964.09 222H1963.09V223H1964.09V222ZM1964.09 3.81818V2.81818H1963.09V3.81818H1964.09ZM2014.38 3.81818L2015.2 3.25637L2014.91 2.81818H2014.38V3.81818ZM2091.93 118.023L2091.11 118.585L2091.4 119.023H2091.93V118.023ZM2093.64 118.023V119.023H2094.64V118.023H2093.64ZM2093.64 3.81818V2.81818H2092.64V3.81818H2093.64ZM2151.87 3.81818V222H2153.87V3.81818H2151.87ZM2152.87 221H2103.44V223H2152.87V221ZM2104.26 221.433L2025.43 106.803L2023.78 107.936L2102.61 222.567L2104.26 221.433ZM2024.6 106.369H2023.32V108.369H2024.6V106.369ZM2022.32 107.369V222H2024.32V107.369H2022.32ZM2023.32 221H1964.09V223H2023.32V221ZM1965.09 222V3.81818H1963.09V222H1965.09ZM1964.09 4.81818H2014.38V2.81818H1964.09V4.81818ZM2013.55 4.37998L2091.11 118.585L2092.76 117.461L2015.2 3.25637L2013.55 4.37998ZM2091.93 119.023H2093.64V117.023H2091.93V119.023ZM2094.64 118.023V3.81818H2092.64V118.023H2094.64ZM2093.64 4.81818H2152.87V2.81818H2093.64V4.81818ZM2180.89 222H2179.89V223H2180.89V222ZM2180.89 3.81818V2.81818H2179.89V3.81818H2180.89ZM2338.13 3.81818H2339.13V2.81818H2338.13V3.81818ZM2338.13 51.5455V52.5455H2339.13V51.5455H2338.13ZM2240.12 51.5455V50.5455H2239.12V51.5455H2240.12ZM2240.12 89.0454H2239.12V90.0454H2240.12V89.0454ZM2330.04 89.0454H2331.04V88.0454H2330.04V89.0454ZM2330.04 136.773V137.773H2331.04V136.773H2330.04ZM2240.12 136.773V135.773H2239.12V136.773H2240.12ZM2240.12 174.273H2239.12V175.273H2240.12V174.273ZM2337.71 174.273H2338.71V173.273H2337.71V174.273ZM2337.71 222V223H2338.71V222H2337.71ZM2181.89 222V3.81818H2179.89V222H2181.89ZM2180.89 4.81818H2338.13V2.81818H2180.89V4.81818ZM2337.13 3.81818V51.5455H2339.13V3.81818H2337.13ZM2338.13 50.5455H2240.12V52.5455H2338.13V50.5455ZM2239.12 51.5455V89.0454H2241.12V51.5455H2239.12ZM2240.12 90.0454H2330.04V88.0454H2240.12V90.0454ZM2329.04 89.0454V136.773H2331.04V89.0454H2329.04ZM2330.04 135.773H2240.12V137.773H2330.04V135.773ZM2239.12 136.773V174.273H2241.12V136.773H2239.12ZM2240.12 175.273H2337.71V173.273H2240.12V175.273ZM2336.71 174.273V222H2338.71V174.273H2336.71ZM2337.71 221H2180.89V223H2337.71V221ZM2358.56 3.81818V2.81818H2356.89L2357.68 4.29033L2358.56 3.81818ZM2424.61 3.81818L2425.51 3.38488L2425.24 2.81818H2424.61V3.81818ZM2467.23 92.4545L2466.32 92.8878L2466.6 93.4545H2467.23V92.4545ZM2468.93 92.4545V93.4545H2469.56L2469.83 92.8878L2468.93 92.4545ZM2511.54 3.81818V2.81818H2510.92L2510.64 3.38488L2511.54 3.81818ZM2577.59 3.81818L2578.48 4.29033L2579.27 2.81818H2577.59V3.81818ZM2497.48 153.392L2496.6 152.92L2496.48 153.141V153.392H2497.48ZM2497.48 222V223H2498.48V222H2497.48ZM2438.67 222H2437.67V223H2438.67V222ZM2438.67 153.392H2439.67V153.141L2439.56 152.92L2438.67 153.392ZM2358.56 4.81818H2424.61V2.81818H2358.56V4.81818ZM2423.71 4.25147L2466.32 92.8878L2468.13 92.0213L2425.51 3.38488L2423.71 4.25147ZM2467.23 93.4545H2468.93V91.4545H2467.23V93.4545ZM2469.83 92.8878L2512.45 4.25147L2510.64 3.38488L2468.03 92.0213L2469.83 92.8878ZM2511.54 4.81818H2577.59V2.81818H2511.54V4.81818ZM2576.71 3.34602L2496.6 152.92L2498.36 153.864L2578.48 4.29033L2576.71 3.34602ZM2496.48 153.392V222H2498.48V153.392H2496.48ZM2497.48 221H2438.67V223H2497.48V221ZM2439.67 222V153.392H2437.67V222H2439.67ZM2439.56 152.92L2359.44 3.34602L2357.68 4.29033L2437.79 153.864L2439.56 152.92Z" fill="white" fill-opacity="0.05" mask="url(#path-1-outside-1_398_384)"/>
<defs>
<linearGradient id="paint0_linear_398_384" x1="1135.5" y1="222" x2="1132.5" y2="6.00001" gradientUnits="userSpaceOnUse">
<stop stop-color="#1C111B"/>
<stop offset="1" stop-color="#0F1112" stop-opacity="0"/>
</linearGradient>
</defs>
</svg>
